<svg width="29" height="34" viewBox="0 0 29 34" fill="none" xmlns="http://www.w3.org/2000/svg">
<path d="M27.2177 5.55709L15.6177 0.244071C15.2644 0.0829398 14.8856 0 14.503 0C14.1205 0 13.7417 0.0829398 13.3883 0.244071L1.78833 5.55709C0.706875 6.04854 0 7.21077 0 8.49917C0 21.6821 6.91771 30.7939 13.3823 33.7559C14.0952 34.0814 14.8987 34.0814 15.6117 33.7559C20.7894 31.385 29 23.1963 29 8.49917C29 7.21077 28.2931 6.04854 27.2177 5.55709ZM14.506 29.6383L14.5 4.3351L25.1273 9.20315C24.9279 19.258 20.1671 26.5435 14.506 29.6383Z" fill="#3A1593"/>
</svg>
