<svg width="19" height="19" viewBox="0 0 19 19" fill="none" xmlns="http://www.w3.org/2000/svg">
<path d="M2.188 4.376C3.3964 4.376 4.376 3.3964 4.376 2.188C4.376 0.979601 3.3964 0 2.188 0C0.979601 0 0 0.979601 0 2.188C0 3.3964 0.979601 4.376 2.188 4.376Z" fill="#5C94D7"/>
<path d="M6.44199 6.03389V18.1729H10.211V12.1699C10.211 10.5859 10.509 9.05189 12.473 9.05189C14.41 9.05189 14.434 10.8629 14.434 12.2699V18.1739H18.205V11.5169C18.205 8.24689 17.501 5.73389 13.679 5.73389C11.844 5.73389 10.614 6.74089 10.111 7.69389H10.06V6.03389H6.44199ZM0.299988 6.03389H4.07499V18.1729H0.299988V6.03389Z" fill="#5C94D7"/>
</svg>
