<svg width="261" height="84" viewBox="0 0 261 84" fill="none" xmlns="http://www.w3.org/2000/svg">
<path d="M22.91 76.86C22.61 76.56 22.46 76.29 22.46 76.05C22.46 75.91 22.49 75.71 22.55 75.45C22.63 75.21 22.69 75.02 22.73 74.88C22.91 74.18 23.15 73.51 23.45 72.87C23.61 72.49 23.77 72.07 23.93 71.61C24.09 71.15 24.22 70.65 24.32 70.11C24.72 69.19 25.07 68.3 25.37 67.44C25.69 66.56 25.89 66 25.97 65.76C25.99 65.66 26.21 65.17 26.63 64.29C26.97 63.63 27.28 63 27.56 62.4C27.66 62.12 27.91 61.38 28.31 60.18C28.59 59.28 28.84 58.56 29.06 58.02C29.28 57.48 29.56 56.94 29.9 56.4C30.26 55.8 30.69 55.5 31.19 55.5C31.43 55.5 31.64 55.58 31.82 55.74C32.02 55.88 32.17 56.1 32.27 56.4C32.43 56.78 32.55 57.25 32.63 57.81C32.73 58.35 32.8 59.27 32.84 60.57C32.86 60.97 32.87 61.56 32.87 62.34V65.19C32.87 66.21 32.89 67.05 32.93 67.71C32.97 68.37 33.06 68.94 33.2 69.42C33.36 70.34 33.58 71.34 33.86 72.42C34.14 73.48 34.36 74.01 34.52 74.01C34.76 74.01 35.16 73.3 35.72 71.88C36.28 70.44 36.99 67.98 37.85 64.5C37.97 64.1 38.11 63.52 38.27 62.76C38.43 62 38.55 61.26 38.63 60.54C38.85 59.72 39.06 58.87 39.26 57.99C39.48 57.09 39.59 56.6 39.59 56.52C39.59 56.42 39.59 56.32 39.59 56.22C39.61 56.12 39.61 56 39.59 55.86C39.67 55.86 39.75 55.73 39.83 55.47C39.93 55.21 39.98 54.97 39.98 54.75C39.98 54.17 40.12 53.74 40.4 53.46C40.46 53.32 40.61 53.25 40.85 53.25C41.09 53.25 41.32 53.32 41.54 53.46C41.78 53.58 41.94 53.73 42.02 53.91C42.08 54.33 41.8 55.86 41.18 58.5C41.18 58.74 41.04 59.46 40.76 60.66C40.58 61.34 40.44 61.99 40.34 62.61C40.26 63.19 40.16 63.69 40.04 64.11C39.94 64.53 39.85 64.73 39.77 64.71C38.95 68.23 37.9 71.45 36.62 74.37C36.04 75.75 35.4 76.44 34.7 76.44C34.22 76.44 33.73 76.12 33.23 75.48C32.69 74.78 32.31 74.07 32.09 73.35C31.89 72.63 31.62 71.37 31.28 69.57C30.94 68.63 30.77 67.54 30.77 66.3C30.77 65.58 30.82 64.74 30.92 63.78L31.04 61.71C31.02 60.91 30.99 60.36 30.95 60.06C30.93 59.74 30.88 59.58 30.8 59.58C30.72 59.58 30.6 59.76 30.44 60.12C30.28 60.48 30.05 61.09 29.75 61.95C29.43 62.75 28.99 63.81 28.43 65.13L27.65 67.05C27.29 67.77 27.02 68.5 26.84 69.24C26 71.42 25.3 73.42 24.74 75.24L24.47 76.08C24.17 76.88 23.88 77.28 23.6 77.28C23.4 77.28 23.17 77.14 22.91 76.86ZM43.029 74.55C42.789 74.55 42.599 74.51 42.459 74.43C42.319 74.35 42.119 74.2 41.859 73.98C41.199 73.28 40.869 72.64 40.869 72.06C40.869 71.92 40.879 71.82 40.899 71.76C40.959 71.62 40.979 71.48 40.959 71.34C40.959 71.2 40.959 71.11 40.959 71.07C40.879 70.99 40.839 70.94 40.839 70.92C40.839 70.88 40.859 70.85 40.899 70.83C40.939 70.79 40.969 70.75 40.989 70.71C41.109 70.71 41.149 70.6 41.109 70.38C41.069 70.22 41.149 69.87 41.349 69.33C41.549 68.77 41.799 68.26 42.099 67.8C42.319 67.44 42.639 66.99 43.059 66.45C43.499 65.91 43.889 65.5 44.229 65.22C44.709 64.8 45.139 64.49 45.519 64.29C45.899 64.09 46.319 63.94 46.779 63.84C47.179 63.74 47.449 63.69 47.589 63.69C47.729 63.69 47.849 63.73 47.949 63.81C48.069 63.87 48.219 63.99 48.399 64.17C48.939 64.41 49.309 64.72 49.509 65.1C49.729 65.46 49.839 66.03 49.839 66.81C49.839 68.11 49.309 69.52 48.249 71.04C47.789 71.7 47.359 72.21 46.959 72.57C46.559 72.91 46.029 73.28 45.369 73.68C44.949 73.98 44.559 74.2 44.199 74.34C43.859 74.46 43.469 74.53 43.029 74.55ZM45.909 71.37C46.389 70.83 46.769 70.32 47.049 69.84C47.349 69.36 47.629 68.75 47.889 68.01C47.989 67.67 48.039 67.26 48.039 66.78C48.039 66.18 47.959 65.84 47.799 65.76C47.599 65.66 47.399 65.61 47.199 65.61C46.759 65.61 46.299 65.81 45.819 66.21C45.239 66.71 44.719 67.33 44.259 68.07C43.799 68.79 43.329 69.69 42.849 70.77C42.649 71.19 42.549 71.6 42.549 72C42.549 72.3 42.619 72.54 42.759 72.72C42.919 72.9 43.129 72.99 43.389 72.99C44.049 72.99 44.889 72.45 45.909 71.37ZM62.0708 74.67C61.7908 74.71 61.5808 74.73 61.4408 74.73C60.7008 74.73 60.0908 74.5 59.6108 74.04C59.1308 73.58 58.8908 72.94 58.8908 72.12C58.8108 71.24 59.0008 70.15 59.4608 68.85C59.9408 67.55 60.5408 66.46 61.2608 65.58C61.7608 65 62.1908 64.53 62.5508 64.17C62.9108 63.81 63.2408 63.57 63.5408 63.45C63.9608 63.27 64.4308 63.18 64.9508 63.18C65.3108 63.26 65.6608 63.41 66.0008 63.63C66.3608 63.85 66.5408 64.07 66.5408 64.29L66.6908 64.44C66.8108 64.44 66.9208 64.59 67.0208 64.89C67.1208 65.17 67.1708 65.48 67.1708 65.82C67.1708 66.1 67.1208 66.34 67.0208 66.54C66.9408 66.92 66.8008 67.25 66.6008 67.53C66.4208 67.81 66.2408 67.95 66.0608 67.95C65.8408 67.95 65.7308 68.01 65.7308 68.13C65.7308 68.21 65.6908 68.25 65.6108 68.25C65.5108 68.25 65.3908 68.19 65.2508 68.07C65.1108 67.95 65.0108 67.81 64.9508 67.65C64.9508 67.59 64.9908 67.42 65.0708 67.14C65.1508 66.86 65.2308 66.55 65.3108 66.21C65.3708 65.97 65.4008 65.76 65.4008 65.58C65.4008 65.18 65.2508 64.98 64.9508 64.98C64.7908 64.98 64.6308 65.02 64.4708 65.1C63.6708 65.54 62.9608 66.24 62.3408 67.2C61.7208 68.16 61.2008 69.48 60.7808 71.16C60.6808 71.6 60.6308 71.95 60.6308 72.21C60.6308 72.41 60.6408 72.57 60.6608 72.69C60.7008 72.81 60.7408 72.88 60.7808 72.9C60.8808 72.94 61.0908 72.96 61.4108 72.96C62.1508 72.96 62.6708 72.87 62.9708 72.69C63.6108 72.35 64.3208 71.89 65.1008 71.31C65.1808 71.25 65.3008 71.15 65.4608 71.01C65.6208 70.85 65.7708 70.74 65.9108 70.68C66.0508 70.46 66.1808 70.33 66.3008 70.29C66.4208 70.23 66.6108 70.2 66.8708 70.2C67.1308 70.28 67.3408 70.39 67.5008 70.53C67.6608 70.65 67.6608 70.75 67.5008 70.83C67.4408 70.83 67.4008 70.85 67.3808 70.89C67.3608 70.93 67.3508 70.96 67.3508 70.98C67.3908 71.08 67.2308 71.33 66.8708 71.73C66.5108 72.13 66.1108 72.51 65.6708 72.87C65.2308 73.21 64.9308 73.38 64.7708 73.38C64.6908 73.38 64.6208 73.39 64.5608 73.41C64.5008 73.43 64.4708 73.48 64.4708 73.56C64.4708 73.64 64.1608 73.83 63.5408 74.13C62.9408 74.41 62.4508 74.59 62.0708 74.67ZM71.2348 74.07C71.1148 74.07 70.9448 74.03 70.7248 73.95C70.5048 73.87 70.3648 73.8 70.3048 73.74C70.1048 73.54 70.0048 73.31 70.0048 73.05C70.0048 72.61 70.2248 72.08 70.6648 71.46C70.7848 71.22 71.0848 70.39 71.5648 68.97L72.1648 67.32C72.2048 66.98 72.1848 66.74 72.1048 66.6C72.0248 66.44 71.8548 66.35 71.5948 66.33H71.4148C71.2348 66.33 71.1148 66.3 71.0548 66.24C70.9948 66.16 70.9648 65.97 70.9648 65.67C70.9848 65.43 71.0448 65.25 71.1448 65.13C71.2448 65.01 71.4148 64.87 71.6548 64.71C71.9748 64.55 72.3048 64.47 72.6448 64.47C72.9648 64.47 73.2048 64.54 73.3648 64.68C73.4848 64.76 73.5648 64.94 73.6048 65.22C73.6648 65.48 73.6948 65.76 73.6948 66.06C73.7148 66.34 73.7348 66.54 73.7548 66.66C73.8548 66.56 74.0948 66.36 74.4748 66.06C74.8748 65.74 75.2148 65.44 75.4948 65.16C75.8348 64.92 76.2248 64.69 76.6648 64.47C77.1048 64.25 77.4148 64.14 77.5948 64.14C77.8148 64.14 78.0348 64.2 78.2548 64.32C78.4748 64.42 78.6248 64.55 78.7048 64.71C78.8848 65.03 78.9748 65.32 78.9748 65.58C78.9748 65.86 78.8648 66.14 78.6448 66.42C78.4648 66.64 78.2348 66.81 77.9548 66.93C77.6748 67.05 77.4748 67.11 77.3548 67.11C77.2348 67.11 77.0848 67.02 76.9048 66.84C76.7248 66.66 76.6248 66.51 76.6048 66.39C76.6048 66.31 76.3448 66.47 75.8248 66.87C75.3248 67.25 74.9348 67.58 74.6548 67.86C74.3348 68.24 74.0048 68.74 73.6648 69.36C73.3448 69.98 72.8648 70.92 72.2248 72.18C72.1648 72.32 72.0248 72.66 71.8048 73.2C71.7048 73.52 71.6148 73.75 71.5348 73.89C71.4548 74.01 71.3548 74.07 71.2348 74.07ZM83.1554 75.09C82.2954 75.09 81.5854 74.77 81.0254 74.13C80.4654 73.49 80.1854 72.69 80.1854 71.73C80.1854 70.77 80.3954 69.72 80.8154 68.58C81.2554 67.42 81.8154 66.38 82.4954 65.46C83.1754 64.54 83.8654 63.92 84.5654 63.6C84.9654 63.38 85.4154 63.27 85.9154 63.27C86.2954 63.27 86.7254 63.38 87.2054 63.6C87.5454 63.74 87.8054 63.91 87.9854 64.11C88.1654 64.31 88.3254 64.62 88.4654 65.04C88.5254 65.4 88.5554 65.65 88.5554 65.79C88.5554 65.91 88.5054 66.17 88.4054 66.57C88.1654 67.31 87.8454 67.94 87.4454 68.46C87.0654 68.96 86.5654 69.39 85.9454 69.75C85.6254 69.95 85.2254 70.05 84.7454 70.05C84.3254 70.05 83.9254 69.98 83.5454 69.84C83.1854 69.68 82.9054 69.45 82.7054 69.15L82.4954 68.91L82.4054 69.15C81.9854 70.23 81.7754 71.15 81.7754 71.91C81.7754 72.43 81.8754 72.85 82.0754 73.17C82.2154 73.39 82.5554 73.5 83.0954 73.5C83.4954 73.5 83.7854 73.46 83.9654 73.38C84.2654 73.28 84.5254 73.16 84.7454 73.02C84.9854 72.86 85.2154 72.7 85.4354 72.54L85.5554 72.48H85.5254C85.7654 72.36 85.9654 72.25 86.1254 72.15C86.2854 72.05 86.3954 71.98 86.4554 71.94C86.4954 71.94 86.5354 71.93 86.5754 71.91C86.6154 71.89 86.6554 71.85 86.6954 71.79C86.8754 71.71 87.0854 71.74 87.3254 71.88C87.5654 72.02 87.6854 72.2 87.6854 72.42C87.6454 72.58 87.4654 72.84 87.1454 73.2C86.8254 73.56 86.5854 73.75 86.4254 73.77C86.4054 73.77 86.3354 73.8 86.2154 73.86C86.0954 73.92 86.0154 73.97 85.9754 74.01H86.0054C85.8254 74.25 85.6454 74.37 85.4654 74.37H85.2254C85.1454 74.53 84.8754 74.69 84.4154 74.85C83.9754 75.01 83.5554 75.09 83.1554 75.09ZM84.5054 68.49C85.1054 68.49 85.6554 68.15 86.1554 67.47C86.6354 66.83 86.8754 66.19 86.8754 65.55C86.8754 65.21 86.8054 64.97 86.6654 64.83C86.5454 64.77 86.4354 64.74 86.3354 64.74C86.2354 64.74 86.0654 64.77 85.8254 64.83C85.5654 64.89 85.1654 65.17 84.6254 65.67C84.0854 66.15 83.6854 66.58 83.4254 66.96L83.0354 67.59C83.1954 67.53 83.3454 67.5 83.4854 67.5C83.6454 67.48 83.7354 67.49 83.7554 67.53C83.7554 67.81 83.8254 68.04 83.9654 68.22C84.1054 68.4 84.2854 68.49 84.5054 68.49ZM96.7213 74.91C96.5813 74.97 96.4613 75 96.3613 75C96.2813 75 96.1813 74.96 96.0613 74.88C95.9413 74.8 95.7913 74.69 95.6113 74.55C95.4713 74.33 95.3813 74.13 95.3413 73.95C95.3213 73.77 95.3113 73.41 95.3113 72.87C95.3713 72.31 95.6013 71.32 96.0013 69.9C96.4013 68.46 96.6913 67.53 96.8713 67.11C96.9513 66.85 96.9913 66.63 96.9913 66.45C96.9913 66.29 96.9413 66.19 96.8413 66.15C96.7413 66.09 96.5413 66.04 96.2413 66C95.5013 65.92 94.8113 66.15 94.1713 66.69C93.5513 67.23 92.8813 68.07 92.1613 69.21C91.5213 70.21 91.2013 71.08 91.2013 71.82C91.2013 71.96 91.2213 72.09 91.2613 72.21C91.3213 72.37 91.4813 72.45 91.7413 72.45C91.9213 72.45 92.1413 72.41 92.4013 72.33C92.6813 72.25 92.9213 72.15 93.1213 72.03C93.2413 71.97 93.6213 71.8 94.2613 71.52C94.3813 71.52 94.4613 71.56 94.5013 71.64C94.5613 71.7 94.5913 71.83 94.5913 72.03C94.5913 72.19 94.6913 72.31 94.8913 72.39C94.9713 72.49 94.8513 72.68 94.5312 72.96C94.2113 73.22 93.7413 73.53 93.1213 73.89C92.6213 74.03 92.1713 74.1 91.7713 74.1C91.3713 74.1 90.9813 73.97 90.6013 73.71C89.9413 73.33 89.6113 72.65 89.6113 71.67C89.6113 71.01 89.7813 70.19 90.1213 69.21C90.4613 68.41 90.8313 67.74 91.2313 67.2C91.6513 66.64 92.1913 66.02 92.8513 65.34C92.9513 65.24 93.1513 65.11 93.4513 64.95C93.7713 64.77 94.1213 64.62 94.5013 64.5C95.1413 64.3 95.6713 64.2 96.0913 64.2C96.4513 64.2 96.7713 64.29 97.0513 64.47L97.4413 64.53C97.6013 64.53 97.7213 64.46 97.8013 64.32C97.9013 64.18 98.0513 63.86 98.2513 63.36L99.0013 61.38C99.1613 60.96 99.4013 60.32 99.7213 59.46C100.061 58.6 100.371 57.84 100.651 57.18C100.791 56.92 100.901 56.65 100.981 56.37C101.081 56.09 101.161 55.92 101.221 55.86H101.791C101.891 55.86 102.041 55.94 102.241 56.1C102.441 56.24 102.571 56.42 102.631 56.64C102.631 56.86 102.541 57.29 102.361 57.93C102.181 58.55 101.931 59.24 101.611 60C101.451 60.4 101.321 60.7 101.221 60.9C100.521 62.56 100.041 63.8 99.7813 64.62L99.2413 66C99.0013 66.5 98.8613 66.87 98.8213 67.11C98.6813 67.69 98.5213 68.2 98.3413 68.64C98.1613 69.06 98.0613 69.3 98.0413 69.36L97.7713 70.17C97.4313 71.15 97.2013 71.84 97.0813 72.24C96.9813 72.62 96.9313 73.01 96.9313 73.41C96.9313 73.81 96.9513 74.14 96.9913 74.4C96.9913 74.62 96.9013 74.79 96.7213 74.91ZM106.789 62.16C106.409 62.16 106.019 61.96 105.619 61.56C105.239 61.14 105.049 60.71 105.049 60.27C105.049 60.17 105.169 59.94 105.409 59.58C105.649 59.22 105.769 59.02 105.769 58.98C105.909 58.98 106.029 58.99 106.129 59.01C106.229 59.03 106.349 59.07 106.489 59.13C106.669 59.53 106.949 59.94 107.329 60.36C107.449 60.52 107.559 60.67 107.659 60.81C107.759 60.95 107.809 61.07 107.809 61.17C107.809 61.51 107.789 61.74 107.749 61.86C107.729 61.98 107.649 62.06 107.509 62.1C107.389 62.14 107.149 62.16 106.789 62.16ZM102.379 73.53C102.319 73.53 102.239 73.51 102.139 73.47C102.039 73.43 101.969 73.4 101.929 73.38C101.929 73.32 101.899 73.22 101.839 73.08C101.799 72.92 101.779 72.82 101.779 72.78C101.619 72.7 101.539 72.6 101.539 72.48C101.539 72.38 101.569 72.24 101.629 72.06C101.889 71.6 102.349 70.56 103.009 68.94C103.669 67.3 104.039 66.33 104.119 66.03C104.119 65.95 104.149 65.85 104.209 65.73C104.269 65.61 104.339 65.51 104.419 65.43C104.499 65.35 104.589 65.31 104.689 65.31C104.909 65.31 105.109 65.46 105.289 65.76C105.489 66.06 105.589 66.39 105.589 66.75C105.589 66.99 105.359 67.68 104.899 68.82C104.459 69.94 103.959 71.07 103.399 72.21C103.319 72.37 103.199 72.6 103.039 72.9C102.899 73.2 102.789 73.38 102.709 73.44C102.629 73.5 102.519 73.53 102.379 73.53ZM109.774 74.79C109.454 74.73 109.124 74.52 108.784 74.16C108.464 73.78 108.254 73.43 108.154 73.11C108.154 73.07 108.134 73.03 108.094 72.99C108.054 72.93 108.024 72.89 108.004 72.87C107.924 72.81 107.884 72.48 107.884 71.88C107.884 71.4 107.904 70.9 107.944 70.38C108.004 69.86 108.074 69.44 108.154 69.12L108.694 67.53L109.114 66.33L109.924 64.59L108.724 64.26C108.584 64.24 108.464 64.17 108.364 64.05C108.284 63.93 108.244 63.82 108.244 63.72C108.244 63.56 108.324 63.37 108.484 63.15C108.664 62.91 108.804 62.79 108.904 62.79C108.964 62.81 109.124 62.82 109.384 62.82C109.984 62.82 110.434 62.79 110.734 62.73C110.934 62.65 111.074 62.49 111.154 62.25C111.234 62.09 111.324 61.89 111.424 61.65C111.544 61.41 111.654 61.19 111.754 60.99C111.814 60.87 111.904 60.69 112.024 60.45C112.164 60.19 112.334 59.9 112.534 59.58C112.574 59.52 112.664 59.38 112.804 59.16C112.944 58.92 113.114 58.72 113.314 58.56C113.454 58.42 113.624 58.35 113.824 58.35C114.024 58.35 114.284 58.48 114.604 58.74C114.644 58.8 114.694 58.88 114.754 58.98C114.834 59.08 114.874 59.17 114.874 59.25C114.874 59.33 114.794 59.5 114.634 59.76C114.514 60 114.394 60.22 114.274 60.42C114.174 60.6 114.084 60.76 114.004 60.9C113.764 61.3 113.594 61.6 113.494 61.8C113.294 62.06 113.194 62.26 113.194 62.4C113.194 62.54 113.324 62.61 113.584 62.61C113.864 62.61 114.334 62.55 114.994 62.43C115.274 62.39 115.464 62.37 115.564 62.37C116.264 62.37 116.644 62.66 116.704 63.24C116.724 63.36 116.734 63.5 116.734 63.66C116.734 63.94 116.634 64.11 116.434 64.17C116.254 64.23 115.834 64.26 115.174 64.26C114.534 64.36 113.874 64.41 113.194 64.41C113.074 64.41 112.934 64.42 112.774 64.44C112.634 64.44 112.484 64.46 112.324 64.5C112.164 64.54 112.044 64.6 111.964 64.68C111.904 64.76 111.834 64.89 111.754 65.07C111.694 65.13 111.554 65.36 111.334 65.76C111.054 66.34 110.874 66.69 110.794 66.81C110.254 68.41 109.854 70.05 109.594 71.73C109.554 72.05 109.534 72.25 109.534 72.33C109.534 72.63 109.634 72.84 109.834 72.96C110.034 73.08 110.374 73.14 110.854 73.14C111.534 73.14 112.124 73.07 112.624 72.93C113.224 72.67 113.674 72.45 113.974 72.27C114.154 72.17 114.314 72.08 114.454 72C114.614 71.9 114.724 71.83 114.784 71.79C114.844 71.67 114.914 71.61 114.994 71.61C115.154 71.61 115.294 71.77 115.414 72.09C115.414 72.41 115.344 72.69 115.204 72.93C115.064 73.17 114.714 73.45 114.154 73.77C112.994 74.51 111.834 74.88 110.674 74.88C110.354 74.88 110.054 74.85 109.774 74.79ZM127.752 74.31C127.132 74.31 126.722 74.28 126.522 74.22C126.322 74.14 126.092 73.98 125.832 73.74C125.632 73.34 125.432 73.04 125.232 72.84C125.152 72.62 125.112 72.29 125.112 71.85C125.112 71.35 125.172 70.81 125.292 70.23C125.412 69.63 125.572 69.07 125.772 68.55C125.852 68.39 125.912 68.24 125.952 68.1C126.012 67.96 126.052 67.87 126.072 67.83C126.072 67.69 126.322 67.26 126.822 66.54C127.342 65.8 127.752 65.29 128.052 65.01C128.192 64.85 128.402 64.68 128.682 64.5C128.982 64.32 129.242 64.19 129.462 64.11C130.022 63.91 130.512 63.81 130.932 63.81C131.512 63.81 132.002 64.08 132.402 64.62C132.842 65.06 133.062 65.55 133.062 66.09C133.062 66.29 133.032 66.51 132.972 66.75C132.772 67.55 132.482 67.95 132.102 67.95C131.842 67.95 131.592 67.8 131.352 67.5C131.272 67.3 131.232 67.17 131.232 67.11C131.232 67.05 131.272 66.88 131.352 66.6C131.392 66.4 131.412 66.26 131.412 66.18C131.412 65.94 131.372 65.73 131.292 65.55C131.212 65.37 131.102 65.28 130.962 65.28C130.502 65.28 129.902 65.68 129.162 66.48C128.902 66.76 128.562 67.2 128.142 67.8C127.742 68.4 127.442 68.94 127.242 69.42C127.042 70.02 126.882 70.51 126.762 70.89C126.642 71.27 126.562 71.51 126.522 71.61C126.522 71.65 126.542 71.72 126.582 71.82C126.642 71.92 126.672 72 126.672 72.06C126.672 72.2 126.702 72.31 126.762 72.39C126.822 72.47 126.932 72.55 127.092 72.63C127.312 72.79 127.572 72.87 127.872 72.87C128.192 72.87 128.562 72.77 128.982 72.57C129.242 72.45 129.612 72.19 130.092 71.79L130.812 71.25C130.952 71.15 131.072 71.07 131.172 71.01C131.292 70.93 131.382 70.88 131.442 70.86C131.502 70.82 131.532 70.82 131.532 70.86C131.532 70.94 131.562 70.98 131.622 70.98C131.682 70.98 131.752 70.94 131.832 70.86C132.012 70.62 132.242 70.5 132.522 70.5C132.682 70.5 132.762 70.53 132.762 70.59L132.732 70.74C132.732 70.84 132.782 70.94 132.882 71.04C132.882 71.12 132.852 71.23 132.792 71.37C132.752 71.49 132.692 71.59 132.612 71.67C132.492 71.85 132.282 72.07 131.982 72.33C131.702 72.57 131.512 72.73 131.412 72.81H131.382C131.282 72.81 131.142 72.9 130.962 73.08C130.662 73.36 130.402 73.5 130.182 73.5C130.102 73.54 130.012 73.59 129.912 73.65C129.812 73.69 129.762 73.74 129.762 73.8C129.562 74 129.322 74.14 129.042 74.22C128.762 74.28 128.332 74.31 127.752 74.31ZM135.329 73.92C135.269 73.8 135.169 73.68 135.029 73.56C134.909 73.42 134.849 73.33 134.849 73.29C134.849 73.07 134.799 72.9 134.699 72.78C134.659 72.74 134.639 72.65 134.639 72.51C134.639 72.19 134.789 71.65 135.089 70.89C135.409 70.11 135.819 69.27 136.319 68.37C136.439 68.25 136.589 68.04 136.769 67.74C136.969 67.44 137.099 67.27 137.159 67.23C137.159 67.15 137.189 67.08 137.249 67.02C137.309 66.94 137.379 66.9 137.459 66.9V66.72C137.459 66.54 137.789 66.11 138.449 65.43C139.109 64.73 139.649 64.25 140.069 63.99C140.569 63.65 141.079 63.48 141.599 63.48C141.959 63.48 142.269 63.58 142.529 63.78C142.629 63.9 143.089 64.33 143.909 65.07L145.019 66.06L144.479 67.56C144.299 68.1 144.209 68.59 144.209 69.03C144.209 69.79 144.429 70.52 144.869 71.22C144.969 71.44 145.169 71.65 145.469 71.85C145.769 72.05 146.069 72.17 146.369 72.21C146.809 72.29 147.029 72.51 147.029 72.87C147.029 73.27 146.849 73.51 146.489 73.59C146.409 73.61 146.289 73.62 146.129 73.62C144.949 73.62 143.929 72.79 143.069 71.13C142.989 71.01 142.879 70.79 142.739 70.47C142.619 70.15 142.549 69.93 142.529 69.81C142.409 69.97 142.259 70.16 142.079 70.38C141.899 70.6 141.729 70.79 141.569 70.95C139.389 73.13 137.669 74.22 136.409 74.22C136.009 74.22 135.649 74.12 135.329 73.92ZM136.409 72.24C136.409 72.34 136.509 72.37 136.709 72.33C136.929 72.29 137.189 72.19 137.489 72.03C137.809 71.87 138.129 71.66 138.449 71.4C140.169 69.92 141.409 68.63 142.169 67.53L142.829 66.45C142.629 66.03 142.419 65.73 142.199 65.55C141.979 65.35 141.779 65.25 141.599 65.25C141.179 65.25 140.519 65.78 139.619 66.84C138.719 67.88 137.899 69.11 137.159 70.53C136.979 70.87 136.819 71.22 136.679 71.58C136.539 71.92 136.449 72.14 136.409 72.24ZM149.715 74.31C149.635 74.45 149.535 74.52 149.415 74.52C149.295 74.52 149.165 74.48 149.025 74.4C148.905 74.32 148.835 74.27 148.815 74.25C148.515 74.25 148.325 74.09 148.245 73.77C148.225 73.73 148.215 73.64 148.215 73.5C148.215 73.24 148.335 72.73 148.575 71.97L148.785 71.01C148.985 70.13 149.165 69.39 149.325 68.79C149.385 68.69 149.505 68.35 149.685 67.77C149.805 67.33 149.965 66.9 150.165 66.48C150.405 65.58 150.785 64.69 151.305 63.81C151.345 63.75 151.425 63.67 151.545 63.57C151.665 63.47 151.755 63.42 151.815 63.42C151.935 63.3 152.065 63.24 152.205 63.24C152.345 63.24 152.525 63.33 152.745 63.51C152.945 63.75 153.045 63.98 153.045 64.2C153.045 64.58 152.795 65.15 152.295 65.91L151.815 67.08C151.775 67.18 151.675 67.42 151.515 67.8C151.355 68.16 151.255 68.49 151.215 68.79C151.475 68.43 151.945 67.91 152.625 67.23C153.025 66.83 153.355 66.54 153.615 66.36C153.875 66.16 154.255 65.9 154.755 65.58C155.115 65.32 155.435 65.13 155.715 65.01C155.995 64.89 156.305 64.83 156.645 64.83C156.825 64.83 156.965 64.84 157.065 64.86C157.345 64.84 157.565 64.98 157.725 65.28C157.885 65.58 157.985 65.97 158.025 66.45C157.785 66.41 157.615 66.39 157.515 66.39C157.115 66.39 156.755 66.47 156.435 66.63C156.135 66.79 155.885 66.95 155.685 67.11C155.485 67.25 155.355 67.34 155.295 67.38C154.215 68.08 153.375 68.74 152.775 69.36C152.155 70.04 151.715 70.54 151.455 70.86C151.215 71.18 151.035 71.5 150.915 71.82C150.855 71.96 150.685 72.38 150.405 73.08C150.125 73.76 149.895 74.17 149.715 74.31ZM166.885 75.57C166.385 75.69 166.045 75.47 165.865 74.91C165.585 74.13 165.445 73.31 165.445 72.45C165.445 72.21 165.455 72.04 165.475 71.94L165.535 71.31L164.365 72.24C163.725 72.8 163.085 73.22 162.445 73.5C161.825 73.78 161.255 73.92 160.735 73.92C160.395 73.86 160.065 73.72 159.745 73.5C159.445 73.26 159.225 72.98 159.085 72.66C159.005 72.5 158.965 72.26 158.965 71.94C158.965 71.2 159.165 70.33 159.565 69.33C159.965 68.31 160.465 67.47 161.065 66.81C161.925 65.51 162.885 64.86 163.945 64.86C164.445 64.86 164.945 65.01 165.445 65.31C165.945 65.51 166.235 65.61 166.315 65.61C166.435 65.61 166.525 65.56 166.585 65.46C166.645 65.36 166.705 65.18 166.765 64.92C166.985 64 167.195 63.23 167.395 62.61C167.835 61.29 168.215 60.23 168.535 59.43C168.855 58.63 169.245 57.75 169.705 56.79C169.905 56.37 170.075 56.1 170.215 55.98C170.375 55.84 170.545 55.78 170.725 55.8C171.165 55.8 171.505 56.1 171.745 56.7C171.805 56.84 171.835 56.98 171.835 57.12C171.835 57.26 171.775 57.45 171.655 57.69C171.135 58.59 170.495 60.06 169.735 62.1C168.975 64.14 168.385 65.91 167.965 67.41C167.785 68.07 167.625 69.02 167.485 70.26C167.365 71.5 167.305 72.53 167.305 73.35C167.305 73.71 167.325 73.97 167.365 74.13C167.465 74.47 167.515 74.77 167.515 75.03C167.515 75.23 167.465 75.36 167.365 75.42C167.265 75.5 167.105 75.55 166.885 75.57ZM161.815 72.24C162.275 72.14 162.835 71.84 163.495 71.34C163.615 71.26 163.905 71.05 164.365 70.71C164.825 70.37 165.175 70.01 165.415 69.63C165.655 69.25 165.825 68.82 165.925 68.34C165.945 67.98 165.905 67.69 165.805 67.47C165.725 67.23 165.555 67 165.295 66.78C165.095 66.64 164.845 66.57 164.545 66.57C164.005 66.57 163.505 66.79 163.045 67.23C162.505 67.71 162.025 68.33 161.605 69.09C161.185 69.85 160.865 70.73 160.645 71.73C160.585 72.11 160.785 72.3 161.245 72.3C161.485 72.3 161.675 72.28 161.815 72.24ZM179.838 74.07C179.718 74.07 179.548 74.03 179.328 73.95C179.108 73.87 178.968 73.8 178.908 73.74C178.708 73.54 178.608 73.31 178.608 73.05C178.608 72.61 178.828 72.08 179.268 71.46C179.388 71.22 179.688 70.39 180.168 68.97L180.768 67.32C180.808 66.98 180.788 66.74 180.708 66.6C180.628 66.44 180.458 66.35 180.198 66.33H180.018C179.838 66.33 179.718 66.3 179.658 66.24C179.598 66.16 179.568 65.97 179.568 65.67C179.588 65.43 179.648 65.25 179.748 65.13C179.848 65.01 180.018 64.87 180.258 64.71C180.578 64.55 180.908 64.47 181.248 64.47C181.568 64.47 181.808 64.54 181.968 64.68C182.088 64.76 182.168 64.94 182.208 65.22C182.268 65.48 182.298 65.76 182.298 66.06C182.318 66.34 182.338 66.54 182.358 66.66C182.458 66.56 182.698 66.36 183.078 66.06C183.478 65.74 183.818 65.44 184.098 65.16C184.438 64.92 184.828 64.69 185.268 64.47C185.708 64.25 186.018 64.14 186.198 64.14C186.418 64.14 186.638 64.2 186.858 64.32C187.078 64.42 187.228 64.55 187.308 64.71C187.488 65.03 187.578 65.32 187.578 65.58C187.578 65.86 187.468 66.14 187.248 66.42C187.068 66.64 186.838 66.81 186.558 66.93C186.278 67.05 186.078 67.11 185.958 67.11C185.838 67.11 185.688 67.02 185.508 66.84C185.328 66.66 185.228 66.51 185.208 66.39C185.208 66.31 184.948 66.47 184.428 66.87C183.928 67.25 183.538 67.58 183.258 67.86C182.938 68.24 182.608 68.74 182.268 69.36C181.948 69.98 181.468 70.92 180.828 72.18C180.768 72.32 180.628 72.66 180.408 73.2C180.308 73.52 180.218 73.75 180.138 73.89C180.058 74.01 179.958 74.07 179.838 74.07ZM191.759 75.09C190.899 75.09 190.189 74.77 189.629 74.13C189.069 73.49 188.789 72.69 188.789 71.73C188.789 70.77 188.999 69.72 189.419 68.58C189.859 67.42 190.419 66.38 191.099 65.46C191.779 64.54 192.469 63.92 193.169 63.6C193.569 63.38 194.019 63.27 194.519 63.27C194.899 63.27 195.329 63.38 195.809 63.6C196.149 63.74 196.409 63.91 196.589 64.11C196.769 64.31 196.929 64.62 197.069 65.04C197.129 65.4 197.159 65.65 197.159 65.79C197.159 65.91 197.109 66.17 197.009 66.57C196.769 67.31 196.449 67.94 196.049 68.46C195.669 68.96 195.169 69.39 194.549 69.75C194.229 69.95 193.829 70.05 193.349 70.05C192.929 70.05 192.529 69.98 192.149 69.84C191.789 69.68 191.509 69.45 191.309 69.15L191.099 68.91L191.009 69.15C190.589 70.23 190.379 71.15 190.379 71.91C190.379 72.43 190.479 72.85 190.679 73.17C190.819 73.39 191.159 73.5 191.699 73.5C192.099 73.5 192.389 73.46 192.569 73.38C192.869 73.28 193.129 73.16 193.349 73.02C193.589 72.86 193.819 72.7 194.039 72.54L194.159 72.48H194.129C194.369 72.36 194.569 72.25 194.729 72.15C194.889 72.05 194.999 71.98 195.059 71.94C195.099 71.94 195.139 71.93 195.179 71.91C195.219 71.89 195.259 71.85 195.299 71.79C195.479 71.71 195.689 71.74 195.929 71.88C196.169 72.02 196.289 72.2 196.289 72.42C196.249 72.58 196.069 72.84 195.749 73.2C195.429 73.56 195.189 73.75 195.029 73.77C195.009 73.77 194.939 73.8 194.819 73.86C194.699 73.92 194.619 73.97 194.579 74.01H194.609C194.429 74.25 194.249 74.37 194.069 74.37H193.829C193.749 74.53 193.479 74.69 193.019 74.85C192.579 75.01 192.159 75.09 191.759 75.09ZM193.109 68.49C193.709 68.49 194.259 68.15 194.759 67.47C195.239 66.83 195.479 66.19 195.479 65.55C195.479 65.21 195.409 64.97 195.269 64.83C195.149 64.77 195.039 64.74 194.939 64.74C194.839 64.74 194.669 64.77 194.429 64.83C194.169 64.89 193.769 65.17 193.229 65.67C192.689 66.15 192.289 66.58 192.029 66.96L191.639 67.59C191.799 67.53 191.949 67.5 192.089 67.5C192.249 67.48 192.339 67.49 192.359 67.53C192.359 67.81 192.429 68.04 192.569 68.22C192.709 68.4 192.889 68.49 193.109 68.49ZM203.135 81.42C202.995 81.42 202.855 81.35 202.715 81.21C202.575 81.07 202.475 80.89 202.415 80.67C202.355 80.49 202.325 80.31 202.325 80.13C202.325 79.75 202.495 79.08 202.835 78.12C202.935 77.96 203.055 77.69 203.195 77.31C203.335 76.93 203.435 76.67 203.495 76.53L203.705 75.93C203.985 75.21 204.225 74.52 204.425 73.86C204.585 73.34 204.715 72.95 204.815 72.69C204.895 72.35 205.015 71.93 205.175 71.43C205.355 70.93 205.475 70.59 205.535 70.41L205.805 69.66L205.085 70.44C204.465 71.04 203.705 71.57 202.805 72.03C201.905 72.47 201.175 72.69 200.615 72.69C200.475 72.69 200.345 72.67 200.225 72.63C199.985 72.57 199.705 72.37 199.385 72.03C199.065 71.69 198.885 71.38 198.845 71.1C198.765 70.94 198.725 70.75 198.725 70.53C198.725 70.07 198.975 69.37 199.475 68.43C199.835 67.85 200.235 67.29 200.675 66.75C201.135 66.19 201.555 65.73 201.935 65.37C202.135 65.29 202.345 65.14 202.565 64.92C202.785 64.68 202.915 64.54 202.955 64.5C203.415 64.1 203.955 63.79 204.575 63.57C205.215 63.35 205.835 63.24 206.435 63.24C206.895 63.24 207.285 63.31 207.605 63.45C207.925 63.59 208.135 63.79 208.235 64.05C208.235 64.13 208.235 64.23 208.235 64.35C208.255 64.47 208.255 64.59 208.235 64.71C208.375 64.71 208.515 64.73 208.655 64.77C208.815 64.81 208.905 64.85 208.925 64.89C208.865 65.49 208.785 65.88 208.685 66.06C208.665 66.18 208.445 66.85 208.025 68.07C207.625 69.29 207.325 70.18 207.125 70.74C207.005 71.02 206.855 71.49 206.675 72.15C206.295 73.37 206.015 74.18 205.835 74.58C205.455 75.8 205.155 76.71 204.935 77.31C204.735 77.91 204.485 78.56 204.185 79.26C204.225 79.24 204.315 79.2 204.455 79.14C204.595 79.08 204.745 79.05 204.905 79.05C204.985 79.05 205.145 79 205.385 78.9C205.645 78.8 205.785 78.76 205.805 78.78C205.905 78.78 205.955 78.88 205.955 79.08C205.955 79.3 205.895 79.47 205.775 79.59C205.215 80.15 204.725 80.59 204.305 80.91C203.885 81.25 203.495 81.42 203.135 81.42ZM200.825 71.07C201.265 71.07 201.645 70.99 201.965 70.83C202.285 70.65 202.675 70.38 203.135 70.02C203.675 69.64 204.085 69.31 204.365 69.03C204.645 68.73 204.945 68.37 205.265 67.95L206.795 65.82C206.995 65.44 207.275 65.11 207.635 64.83L207.185 64.8C206.545 64.86 206.035 64.95 205.655 65.07C205.295 65.19 204.855 65.42 204.335 65.76C203.255 66.5 202.405 67.26 201.785 68.04C201.425 68.48 201.115 68.95 200.855 69.45C200.595 69.93 200.455 70.32 200.435 70.62C200.435 70.92 200.565 71.07 200.825 71.07ZM212.043 73.47C211.643 73.09 211.343 72.72 211.143 72.36C210.963 72 210.833 71.45 210.753 70.71C210.693 70.25 210.773 69.58 210.993 68.7C211.213 67.82 211.503 66.97 211.863 66.15C212.243 65.31 212.613 64.71 212.973 64.35C213.233 64.01 213.463 63.84 213.663 63.84C213.783 63.84 214.023 63.92 214.383 64.08C214.603 64.34 214.713 64.62 214.713 64.92C214.713 65.2 214.593 65.54 214.353 65.94C213.973 66.46 213.633 67.12 213.333 67.92C213.033 68.72 212.833 69.46 212.733 70.14C212.533 70.8 212.433 71.23 212.433 71.43C212.433 71.59 212.473 71.72 212.553 71.82C212.653 71.9 212.803 71.96 213.003 72C213.383 72.08 213.833 71.94 214.353 71.58C214.873 71.22 215.383 70.7 215.883 70.02C216.383 69.34 216.783 68.6 217.083 67.8C217.183 67.54 217.273 67.2 217.353 66.78C217.493 66.3 217.573 66.03 217.593 65.97C217.693 65.57 217.843 65.27 218.043 65.07C218.243 64.85 218.453 64.74 218.673 64.74C218.813 64.74 218.953 64.79 219.093 64.89C219.233 64.95 219.323 65.02 219.363 65.1C219.423 65.16 219.453 65.28 219.453 65.46C219.453 65.68 219.443 65.87 219.423 66.03C219.423 66.47 219.363 66.86 219.243 67.2C219.123 67.52 218.933 67.94 218.673 68.46C218.453 68.84 218.273 69.21 218.133 69.57C217.813 70.27 217.343 71.01 216.723 71.79C216.103 72.55 215.533 73.04 215.013 73.26C214.453 73.6 213.933 73.77 213.453 73.77C213.113 73.77 212.643 73.67 212.043 73.47ZM224.287 61.86C224.147 61.72 224.027 61.48 223.927 61.14C223.827 60.8 223.827 60.63 223.927 60.63C224.087 60.61 224.267 60.44 224.467 60.12C224.687 59.78 224.787 59.5 224.767 59.28C224.767 59.2 224.797 59.13 224.857 59.07C224.917 58.99 224.987 58.94 225.067 58.92C225.227 58.82 225.367 58.77 225.487 58.77C225.827 58.77 226.137 59.01 226.417 59.49C226.537 59.75 226.597 59.98 226.597 60.18C226.597 60.36 226.547 60.55 226.447 60.75C226.347 60.93 226.167 61.17 225.907 61.47C225.567 61.93 225.247 62.16 224.947 62.16C224.747 62.16 224.527 62.06 224.287 61.86ZM221.377 74.04C221.097 73.76 220.957 73.36 220.957 72.84C220.957 72.56 221.007 72.32 221.107 72.12C221.107 72.02 221.127 71.9 221.167 71.76C221.207 71.62 221.227 71.53 221.227 71.49C221.207 71.37 221.287 71.04 221.467 70.5C221.827 69.7 222.307 68.29 222.907 66.27C222.907 66.17 222.947 66.09 223.027 66.03C223.107 65.95 223.227 65.9 223.387 65.88C223.547 65.84 223.657 65.82 223.717 65.82C223.837 65.82 223.937 65.87 224.017 65.97C224.117 66.05 224.247 66.21 224.407 66.45C224.527 66.57 224.587 66.75 224.587 66.99C224.587 67.37 224.457 67.83 224.197 68.37C223.937 68.95 223.767 69.45 223.687 69.87C223.447 70.41 223.257 70.91 223.117 71.37C223.077 71.49 223.017 71.73 222.937 72.09C222.857 72.45 222.747 72.74 222.607 72.96C222.487 73.52 222.377 73.91 222.277 74.13C222.177 74.35 222.067 74.46 221.947 74.46C221.807 74.46 221.617 74.32 221.377 74.04ZM227.213 73.95C227.053 73.83 226.943 73.72 226.883 73.62C226.823 73.52 226.793 73.37 226.793 73.17C226.793 72.99 226.803 72.84 226.823 72.72C226.883 72.04 227.033 71.25 227.273 70.35L227.423 69.75C227.483 69.25 227.833 68.2 228.473 66.6C229.113 65 229.633 63.91 230.033 63.33C230.193 63.23 230.363 63.18 230.543 63.18C230.803 63.18 231.023 63.27 231.203 63.45C231.323 63.53 231.383 63.68 231.383 63.9C231.383 64.1 231.303 64.4 231.143 64.8C231.003 65.18 230.753 65.75 230.393 66.51C230.313 66.67 230.173 66.97 229.973 67.41C229.793 67.85 229.703 68.11 229.703 68.19C229.703 68.23 229.713 68.25 229.733 68.25C229.773 68.25 229.813 68.24 229.853 68.22C229.893 68.18 229.933 68.15 229.973 68.13C230.193 67.75 230.723 67.23 231.563 66.57C232.423 65.91 233.013 65.5 233.333 65.34C233.473 65.26 233.653 65.18 233.873 65.1C234.093 65.02 234.243 64.96 234.323 64.92C234.643 64.76 235.023 64.68 235.463 64.68C235.743 64.68 235.983 64.73 236.183 64.83C236.403 64.91 236.553 65.04 236.633 65.22C236.653 65.36 236.703 65.47 236.783 65.55C236.883 65.63 236.953 65.68 236.993 65.7C237.053 65.7 237.093 65.73 237.113 65.79C237.133 65.83 237.143 65.86 237.143 65.88C237.143 66.02 237.063 66.11 236.903 66.15C236.743 66.17 236.453 66.19 236.033 66.21C235.813 66.23 235.583 66.28 235.343 66.36C235.103 66.44 234.863 66.54 234.623 66.66C233.503 67.3 232.663 67.8 232.103 68.16C231.563 68.52 231.013 69.01 230.453 69.63C230.233 69.87 229.943 70.3 229.583 70.92C229.443 71.06 229.293 71.43 229.133 72.03C228.993 72.61 228.923 72.97 228.923 73.11C228.903 73.17 228.863 73.29 228.803 73.47C228.743 73.63 228.653 73.79 228.533 73.95C228.293 74.27 228.093 74.43 227.933 74.43C227.753 74.43 227.513 74.27 227.213 73.95ZM240.333 75.09C239.473 75.09 238.763 74.77 238.203 74.13C237.643 73.49 237.363 72.69 237.363 71.73C237.363 70.77 237.573 69.72 237.993 68.58C238.433 67.42 238.993 66.38 239.673 65.46C240.353 64.54 241.043 63.92 241.743 63.6C242.143 63.38 242.593 63.27 243.093 63.27C243.473 63.27 243.903 63.38 244.383 63.6C244.723 63.74 244.983 63.91 245.163 64.11C245.343 64.31 245.503 64.62 245.643 65.04C245.703 65.4 245.733 65.65 245.733 65.79C245.733 65.91 245.683 66.17 245.583 66.57C245.343 67.31 245.023 67.94 244.623 68.46C244.243 68.96 243.743 69.39 243.123 69.75C242.803 69.95 242.403 70.05 241.923 70.05C241.503 70.05 241.103 69.98 240.723 69.84C240.363 69.68 240.083 69.45 239.883 69.15L239.673 68.91L239.583 69.15C239.163 70.23 238.953 71.15 238.953 71.91C238.953 72.43 239.053 72.85 239.253 73.17C239.393 73.39 239.733 73.5 240.273 73.5C240.673 73.5 240.963 73.46 241.143 73.38C241.443 73.28 241.703 73.16 241.923 73.02C242.163 72.86 242.393 72.7 242.613 72.54L242.733 72.48H242.703C242.943 72.36 243.143 72.25 243.303 72.15C243.463 72.05 243.573 71.98 243.633 71.94C243.673 71.94 243.713 71.93 243.753 71.91C243.793 71.89 243.833 71.85 243.873 71.79C244.053 71.71 244.263 71.74 244.503 71.88C244.743 72.02 244.863 72.2 244.863 72.42C244.823 72.58 244.643 72.84 244.323 73.2C244.003 73.56 243.763 73.75 243.603 73.77C243.583 73.77 243.513 73.8 243.393 73.86C243.273 73.92 243.193 73.97 243.153 74.01H243.183C243.003 74.25 242.823 74.37 242.643 74.37H242.403C242.323 74.53 242.053 74.69 241.593 74.85C241.153 75.01 240.733 75.09 240.333 75.09ZM241.683 68.49C242.283 68.49 242.833 68.15 243.333 67.47C243.813 66.83 244.053 66.19 244.053 65.55C244.053 65.21 243.983 64.97 243.843 64.83C243.723 64.77 243.613 64.74 243.513 64.74C243.413 64.74 243.243 64.77 243.003 64.83C242.743 64.89 242.343 65.17 241.803 65.67C241.263 66.15 240.863 66.58 240.603 66.96L240.213 67.59C240.373 67.53 240.523 67.5 240.663 67.5C240.823 67.48 240.913 67.49 240.933 67.53C240.933 67.81 241.003 68.04 241.143 68.22C241.283 68.4 241.463 68.49 241.683 68.49ZM254.889 74.7C254.549 74.7 254.309 74.6 254.169 74.4C253.929 74.1 253.759 73.86 253.659 73.68C253.579 73.48 253.539 73.25 253.539 72.99C253.539 72.77 253.549 72.59 253.569 72.45L253.689 71.07C253.649 71.03 253.569 71.04 253.449 71.1C253.349 71.16 253.249 71.23 253.149 71.31C253.069 71.39 252.989 71.46 252.909 71.52L252.399 71.94C251.519 72.94 250.749 73.65 250.089 74.07C249.449 74.49 248.849 74.7 248.289 74.7L247.959 74.67C247.539 74.63 247.229 74.43 247.029 74.07C246.829 73.69 246.729 73.21 246.729 72.63C246.729 72.33 246.739 72.11 246.759 71.97C246.839 71.27 246.989 70.62 247.209 70.02C247.429 69.42 247.769 68.77 248.229 68.07C248.569 67.47 249.059 66.89 249.699 66.33C250.359 65.77 251.009 65.38 251.649 65.16C252.249 64.94 252.809 64.83 253.329 64.83C253.669 64.83 254.009 64.88 254.349 64.98C254.589 65.1 254.779 65.16 254.919 65.16C255.079 65.16 255.199 65.06 255.279 64.86C255.359 64.74 255.449 64.52 255.549 64.2C255.709 63.76 255.839 63.45 255.939 63.27L256.599 61.32L257.379 59.46L258.249 57.42C258.649 56.62 258.989 56.22 259.269 56.22C259.429 56.22 259.619 56.33 259.839 56.55C260.019 56.75 260.109 56.97 260.109 57.21C260.109 57.41 260.049 57.66 259.929 57.96C259.829 58.26 259.699 58.61 259.539 59.01C259.279 59.43 259.019 59.93 258.759 60.51L258.309 61.53C257.769 62.81 257.449 63.58 257.349 63.84L257.109 64.65C256.929 65.21 256.799 65.69 256.719 66.09C256.559 66.95 256.419 67.38 256.299 67.38C255.939 67.76 255.599 68.94 255.279 70.92C255.199 71.4 255.159 72.32 255.159 73.68C255.159 74.14 255.139 74.43 255.099 74.55C255.079 74.65 255.009 74.7 254.889 74.7ZM248.499 72.81C248.879 72.81 249.269 72.67 249.669 72.39C250.089 72.09 250.619 71.65 251.259 71.07C251.799 70.55 252.449 69.74 253.209 68.64C253.969 67.54 254.349 66.9 254.349 66.72C254.349 66.64 254.249 66.57 254.049 66.51C253.849 66.45 253.629 66.42 253.389 66.42C253.229 66.42 253.069 66.44 252.909 66.48C252.449 66.58 251.999 66.79 251.559 67.11C251.139 67.41 250.689 67.85 250.209 68.43C249.649 69.13 249.189 69.87 248.829 70.65C248.469 71.43 248.289 72.03 248.289 72.45C248.289 72.69 248.359 72.81 248.499 72.81Z" fill="#F15A25"/>
<path d="M35.6489 6.34558C25.0879 15.4116 25.0881 35.6893 40.9255 38.2293C51.3949 39.9084 50.6429 26.168 44.6303 21.126C33.8769 12.1085 17.4249 18.5394 15.0323 32.1169C13.6819 39.7804 14.7037 47.7643 18.0299 54.6717" stroke="#F15A25" stroke-width="3" stroke-linecap="round"/>
<path d="M36.0226 4.62456C33.4445 5.23554 30.4651 5.11803 28.082 6.26562" stroke="#F15A25" stroke-width="3" stroke-linecap="round"/>
<path d="M37.7929 3.77148L39.926 8.20114" stroke="#F15A25" stroke-width="3" stroke-linecap="round"/>
</svg>
