<svg width="154" height="56" viewBox="0 0 154 56" fill="none" xmlns="http://www.w3.org/2000/svg">
<rect x="54" width="100" height="40" rx="20" fill="#FFF5F4"/>
<path d="M77.616 21.242C77.616 17.686 72.464 19.058 72.464 16.86C72.464 15.922 73.178 15.474 74.102 15.502C75.11 15.53 75.684 16.132 75.74 16.79H77.504C77.364 15.124 76.048 14.144 74.186 14.144C72.198 14.144 70.84 15.208 70.84 16.916C70.84 20.5 76.006 18.974 76.006 21.326C76.006 22.152 75.376 22.754 74.256 22.754C73.15 22.754 72.59 22.11 72.52 21.312H70.812C70.812 23.034 72.31 24.098 74.256 24.098C76.426 24.098 77.616 22.698 77.616 21.242ZM78.9672 20.108C78.9672 22.488 80.5772 24.126 82.5792 24.126C83.8672 24.126 84.7912 23.51 85.2812 22.852V24H86.8912V16.286H85.2812V17.406C84.8052 16.776 83.9092 16.16 82.6072 16.16C80.5772 16.16 78.9672 17.728 78.9672 20.108ZM85.2812 20.136C85.2812 21.802 84.1472 22.74 82.9432 22.74C81.7532 22.74 80.6052 21.774 80.6052 20.108C80.6052 18.442 81.7532 17.546 82.9432 17.546C84.1472 17.546 85.2812 18.484 85.2812 20.136ZM88.0775 16.286L91.0035 24H92.9075L95.8475 16.286H94.1535L91.9695 22.572L89.7855 16.286H88.0775ZM100.302 17.504C101.492 17.504 102.43 18.26 102.458 19.45H98.1879C98.3559 18.232 99.2239 17.504 100.302 17.504ZM103.914 21.704H102.192C101.898 22.306 101.352 22.782 100.372 22.782C99.1959 22.782 98.2859 22.012 98.1739 20.738H104.068C104.11 20.472 104.124 20.22 104.124 19.954C104.124 17.686 102.57 16.16 100.372 16.16C98.0899 16.16 96.5219 17.714 96.5219 20.136C96.5219 22.558 98.1599 24.126 100.372 24.126C102.262 24.126 103.48 23.048 103.914 21.704ZM108.995 23.86H115.799V22.53H111.361C112.999 21.032 115.519 19.142 115.519 16.664C115.519 14.83 114.343 13.584 112.271 13.584C110.465 13.584 109.037 14.662 108.981 16.874H110.521C110.563 15.726 111.165 14.942 112.285 14.942C113.475 14.942 113.937 15.67 113.937 16.734C113.937 18.736 111.403 20.584 108.995 22.698V23.86ZM117.201 18.764C117.201 21.732 117.985 23.972 120.841 23.972C123.697 23.972 124.481 21.732 124.481 18.764C124.481 15.852 123.697 13.612 120.841 13.612C117.985 13.612 117.201 15.852 117.201 18.764ZM122.913 18.764C122.913 20.766 122.703 22.516 120.841 22.516C118.979 22.516 118.769 20.766 118.769 18.764C118.769 16.86 118.979 15.068 120.841 15.068C122.703 15.068 122.913 16.86 122.913 18.764ZM125.918 16.258C125.918 17.658 126.828 18.456 128.046 18.456C129.264 18.456 130.174 17.658 130.174 16.258C130.174 14.872 129.264 14.074 128.046 14.074C126.828 14.074 125.918 14.872 125.918 16.258ZM128.046 15.04C128.578 15.04 128.928 15.39 128.928 16.258C128.928 17.126 128.578 17.49 128.046 17.49C127.5 17.49 127.164 17.126 127.164 16.258C127.164 15.39 127.5 15.04 128.046 15.04ZM127.304 24H128.872L134.458 14.256H132.89L127.304 24ZM131.616 21.984C131.616 23.384 132.526 24.182 133.744 24.182C134.948 24.182 135.858 23.384 135.858 21.984C135.858 20.584 134.948 19.8 133.744 19.8C132.526 19.8 131.616 20.584 131.616 21.984ZM133.73 20.766C134.262 20.766 134.612 21.116 134.612 21.984C134.612 22.852 134.262 23.202 133.73 23.202C133.198 23.202 132.848 22.852 132.848 21.984C132.848 21.116 133.198 20.766 133.73 20.766Z" fill="#F15A25"/>
<path d="M5.77344 51.4506C9.35974 38.002 27.6296 29.2043 36.7893 42.3715C42.8445 51.0758 30.1383 56.3596 22.987 53.13C10.1969 47.3538 8.85307 29.7407 20.0481 21.6942C26.3668 17.1526 34.0035 14.6094 41.67 14.6094" stroke="#F15A25" stroke-width="3" stroke-linecap="round"/>
<path d="M4.38456 52.5324C3.81648 49.9444 2.41797 47.3111 2.41797 44.666" stroke="#F15A25" stroke-width="3" stroke-linecap="round"/>
<path d="M4.38477 54.498H9.30125" stroke="#F15A25" stroke-width="3" stroke-linecap="round"/>
</svg>
