<svg width="34" height="34" viewBox="0 0 34 34" fill="none" xmlns="http://www.w3.org/2000/svg">
<path d="M15.3 27.2H18.7V23.8H15.3V27.2ZM17 0C7.616 0 0 7.616 0 17C0 26.384 7.616 34 17 34C26.384 34 34 26.384 34 17C34 7.616 26.384 0 17 0ZM17 30.6C9.503 30.6 3.4 24.497 3.4 17C3.4 9.503 9.503 3.4 17 3.4C24.497 3.4 30.6 9.503 30.6 17C30.6 24.497 24.497 30.6 17 30.6ZM17 6.8C13.243 6.8 10.2 9.843 10.2 13.6H13.6C13.6 11.73 15.13 10.2 17 10.2C18.87 10.2 20.4 11.73 20.4 13.6C20.4 17 15.3 16.575 15.3 22.1H18.7C18.7 18.275 23.8 17.85 23.8 13.6C23.8 9.843 20.757 6.8 17 6.8Z" fill="#3A1593"/>
</svg>
