<svg width="27" height="26" viewBox="0 0 27 26" fill="none" xmlns="http://www.w3.org/2000/svg">
<path d="M25.1237 5.91667H17.3737C17.0311 5.91667 16.7026 6.06592 16.4604 6.3316C16.2181 6.59728 16.082 6.95761 16.082 7.33333V11.5833H13.4987V1.66667C13.4987 1.29094 13.3626 0.930609 13.1204 0.664932C12.8781 0.399255 12.5496 0.25 12.207 0.25H1.8737C1.53113 0.25 1.20259 0.399255 0.960352 0.664932C0.718117 0.930609 0.582031 1.29094 0.582031 1.66667V24.3333C0.582031 24.7091 0.718117 25.0694 0.960352 25.3351C1.20259 25.6007 1.53113 25.75 1.8737 25.75H25.1237C25.4663 25.75 25.7948 25.6007 26.037 25.3351C26.2793 25.0694 26.4154 24.7091 26.4154 24.3333V7.33333C26.4154 6.95761 26.2793 6.59728 26.037 6.3316C25.7948 6.06592 25.4663 5.91667 25.1237 5.91667ZM8.33203 4.5H10.9154V7.33333H8.33203V4.5ZM5.7487 18.6667H3.16536V15.8333H5.7487V18.6667ZM5.7487 13H3.16536V10.1667H5.7487V13ZM5.7487 7.33333H3.16536V4.5H5.7487V7.33333ZM10.9154 18.6667H8.33203V15.8333H10.9154V18.6667ZM10.9154 13H8.33203V10.1667H10.9154V13ZM22.5404 18.6667H19.957V15.8333H22.5404V18.6667ZM22.5404 13H19.957V10.1667H22.5404V13Z" fill="#3A1593"/>
</svg>
